<?xml version="1.0" encoding="utf-8"?>
<!-- Generator: Adobe Illustrator 16.0.4, SVG Export Plug-In . SVG Version: 6.00 Build 0)  -->
<!DOCTYPE svg PUBLIC "-//W3C//DTD SVG 1.1//EN" "http://www.w3.org/Graphics/SVG/1.1/DTD/svg11.dtd">
<svg version="1.1" id="Capa_1" xmlns="http://www.w3.org/2000/svg" xmlns:xlink="http://www.w3.org/1999/xlink" x="0px" y="0px"
	 width="64px" height="64px" viewBox="0 0 64 64" enable-background="new 0 0 64 64" xml:space="preserve">
<g>
	<path d="M20.424,14.659h-9.167c-0.965,0-1.75,0.785-1.75,1.75v30.423c0,0.965,0.785,1.75,1.75,1.75h9.167
		c0.965,0,1.75-0.785,1.75-1.75V16.409C22.174,15.444,21.389,14.659,20.424,14.659z M20.674,46.832c0,0.139-0.112,0.25-0.25,0.25
		h-9.167c-0.138,0-0.25-0.111-0.25-0.25V16.409c0-0.138,0.112-0.25,0.25-0.25h9.167c0.138,0,0.25,0.112,0.25,0.25V46.832z"/>
	<path d="M16.59,24.317v-4.199c0-0.413-0.337-0.75-0.75-0.75s-0.75,0.337-0.75,0.75v4.199c-0.936,0.033-1.688,0.8-1.688,1.743v4.561
		c0,0.944,0.752,1.71,1.688,1.744v11.127c0,0.412,0.337,0.75,0.75,0.75s0.75-0.338,0.75-0.75V32.365
		c0.936-0.034,1.688-0.801,1.688-1.744V26.06C18.278,25.117,17.526,24.35,16.59,24.317z M16.777,30.621
		c0,0.138-0.112,0.25-0.25,0.25h-1.375c-0.138,0-0.25-0.112-0.25-0.25V26.06c0-0.138,0.112-0.25,0.25-0.25h1.375
		c0.138,0,0.25,0.112,0.25,0.25V30.621z"/>
	<path d="M35.244,14.659h-9.167c-0.965,0-1.75,0.785-1.75,1.75v30.423c0,0.965,0.785,1.75,1.75,1.75h9.167
		c0.965,0,1.75-0.785,1.75-1.75V16.409C36.994,15.444,36.209,14.659,35.244,14.659z M35.494,46.832c0,0.139-0.112,0.25-0.25,0.25
		h-9.167c-0.138,0-0.25-0.111-0.25-0.25V16.409c0-0.138,0.112-0.25,0.25-0.25h9.167c0.138,0,0.25,0.112,0.25,0.25V46.832z"/>
	<path d="M31.41,28.317v-8.199c0-0.413-0.337-0.75-0.75-0.75s-0.75,0.337-0.75,0.75v8.199c-0.936,0.033-1.688,0.8-1.688,1.743v4.562
		c0.001,0.942,0.753,1.709,1.688,1.743v7.127c0,0.412,0.337,0.75,0.75,0.75s0.75-0.338,0.75-0.75v-7.127
		c0.935-0.034,1.688-0.801,1.688-1.744V30.06C33.098,29.117,32.345,28.35,31.41,28.317z M31.598,34.622
		c0,0.138-0.112,0.25-0.25,0.25h-1.375c-0.138,0-0.25-0.112-0.25-0.25V30.06c0-0.138,0.112-0.25,0.25-0.25h1.375
		c0.138,0,0.25,0.112,0.25,0.25V34.622z"/>
	<path d="M50.064,14.659h-9.168c-0.965,0-1.75,0.785-1.75,1.75v30.423c0,0.965,0.785,1.75,1.75,1.75h9.168
		c0.965,0,1.75-0.785,1.75-1.75V16.409C51.814,15.444,51.029,14.659,50.064,14.659z M50.314,46.832c0,0.139-0.112,0.25-0.25,0.25
		h-9.168c-0.138,0-0.25-0.111-0.25-0.25V16.409c0-0.138,0.112-0.25,0.25-0.25h9.168c0.138,0,0.25,0.112,0.25,0.25V46.832z"/>
	<path d="M46.23,32.317v-12.2c0-0.413-0.338-0.75-0.75-0.75c-0.414,0-0.75,0.337-0.75,0.75v12.199
		c-0.937,0.033-1.688,0.8-1.688,1.743v4.562c0,0.943,0.752,1.71,1.688,1.744v3.127c0,0.412,0.336,0.75,0.75,0.75
		c0.412,0,0.75-0.338,0.75-0.75v-3.127c0.936-0.034,1.688-0.801,1.688-1.744v-4.561C47.918,33.117,47.166,32.35,46.23,32.317z
		 M46.418,38.622c0,0.138-0.111,0.25-0.25,0.25h-1.375c-0.139,0-0.25-0.112-0.25-0.25v-4.562c0-0.139,0.111-0.25,0.25-0.25h1.375
		c0.139,0,0.25,0.111,0.25,0.25V38.622z"/>
</g>
</svg>
